<?xml version="1.0" standalone="no"?>
<!DOCTYPE svg PUBLIC "-//W3C//DTD SVG 20010904//EN"
 "http://www.w3.org/TR/2001/REC-SVG-20010904/DTD/svg10.dtd">
<svg version="1.0" xmlns="http://www.w3.org/2000/svg"
 width="700.000000pt" height="700.000000pt" viewBox="0 0 700.000000 700.000000"
 preserveAspectRatio="xMidYMid meet">
<metadata>
Created by potrace 1.14, written by Peter Selinger 2001-2017
</metadata>
<g transform="translate(0.000000,700.000000) scale(0.100000,-0.100000)"
fill="#000000" stroke="none">
<path d="M2852 6973 c-6 -16 -40 -116 -76 -223 -134 -392 -172 -482 -238 -549
-90 -92 -228 -133 -348 -102 -80 21 -150 52 -428 188 -150 73 -276 133 -281
133 -12 0 -901 -888 -901 -900 0 -5 52 -116 116 -247 152 -311 168 -347 193
-427 59 -193 -17 -368 -200 -457 -102 -50 -105 -51 -579 -213 l-105 -36 -3
-640 c-1 -352 -1 -640 1 -640 7 0 501 -170 557 -192 204 -78 281 -142 329
-271 36 -98 26 -193 -35 -340 -25 -58 -243 -511 -268 -556 -13 -23 1 -38 436
-472 247 -247 454 -449 459 -449 5 0 134 61 287 136 152 74 286 139 297 144
76 32 119 43 187 47 115 8 214 -31 297 -118 51 -53 97 -158 198 -454 35 -104
76 -223 90 -262 l26 -73 637 0 637 0 21 58 c11 31 50 143 86 247 97 287 102
299 141 378 71 144 195 228 335 228 108 -1 147 -15 508 -192 156 -77 287 -139
292 -139 12 0 900 889 900 900 0 5 -52 116 -116 247 -193 395 -214 450 -214
553 0 64 33 175 60 200 3 3 15 18 27 33 27 36 82 74 153 109 57 28 98 43 345
128 83 28 189 65 238 82 l87 31 0 637 0 637 -72 26 c-40 14 -147 51 -238 82
-430 146 -498 186 -564 325 -23 48 -32 83 -34 136 -6 100 28 191 195 533 l139
284 -448 449 c-247 246 -453 448 -457 448 -5 0 -128 -58 -273 -129 -379 -185
-442 -207 -553 -199 -118 10 -229 80 -290 184 -33 55 -75 164 -152 389 -35
105 -76 223 -90 263 l-26 72 -637 0 -638 0 -10 -27z m899 -633 c102 -294 180
-434 315 -567 193 -191 511 -300 759 -261 27 4 64 10 81 13 88 13 260 78 418
157 l80 39 159 -159 159 -159 -45 -89 c-88 -177 -148 -354 -164 -484 -28 -223
33 -458 170 -660 44 -64 162 -179 231 -224 58 -39 225 -123 281 -143 17 -6 39
-14 50 -19 11 -4 54 -19 95 -33 l75 -26 1 -223 c2 -219 1 -224 -20 -232 -11
-5 -68 -25 -126 -46 -350 -121 -557 -290 -677 -551 -131 -287 -115 -566 54
-923 25 -52 51 -109 58 -126 l14 -30 -157 -157 -157 -157 -111 52 c-253 121
-371 155 -550 162 -249 10 -508 -95 -689 -278 -120 -122 -200 -262 -284 -501
-18 -49 -36 -99 -40 -110 -8 -19 -18 -20 -224 -21 -118 -1 -219 2 -224 5 -5 3
-29 60 -52 126 -135 373 -280 557 -536 680 -310 149 -595 132 -984 -60 l-115
-56 -158 158 -158 158 48 100 c82 175 109 245 142 374 33 129 32 295 -4 435
-68 266 -232 477 -468 605 -67 36 -212 97 -323 137 -44 15 -83 32 -86 37 -3 4
-5 105 -5 224 l1 215 133 48 c246 90 381 167 498 284 213 212 315 524 267 811
-19 110 -73 265 -144 414 l-60 125 159 158 158 159 134 -64 c246 -117 377
-152 565 -150 137 0 260 30 395 95 262 126 418 327 550 708 13 36 26 74 30 86
8 20 14 21 232 20 l223 -1 26 -75z"/>
<path d="M3388 4955 c-2 -1 -28 -5 -58 -8 -571 -61 -1063 -477 -1231 -1039 -8
-29 -16 -61 -35 -154 -28 -141 -26 -383 5 -533 62 -298 196 -548 406 -756 268
-266 614 -412 995 -420 110 -2 317 16 339 29 4 3 22 8 39 11 145 25 389 142
542 260 56 43 185 167 230 220 92 111 191 278 239 405 24 62 67 217 75 270 3
19 8 46 12 60 3 14 7 94 8 178 5 301 -72 570 -231 815 -231 354 -611 596
-1028 653 -38 5 -302 13 -307 9z m245 -590 c212 -26 445 -171 579 -360 375
-531 63 -1267 -579 -1369 -521 -82 -1003 327 -1006 854 -2 226 83 443 236 607
151 161 336 249 577 276 33 3 132 -1 193 -8z"/>
</g>
</svg>
