<svg width="83" height="83" viewBox="0 0 83 83" fill="none" xmlns="http://www.w3.org/2000/svg">
<path d="M41.915 58.2038C41.915 58.6603 42.2677 59.0337 42.6931 59.0337H61.8869C62.3123 59.0337 62.665 58.6603 62.665 58.2038V53.2237C62.665 52.7672 62.3123 52.3937 61.8869 52.3937H42.6931C42.2677 52.3937 41.915 52.7672 41.915 53.2237V58.2038ZM21.6941 58.8366L41.6141 42.1329C42.0084 41.8009 42.0084 41.1887 41.6141 40.8567L21.6941 24.1634C21.5739 24.0611 21.4268 23.9955 21.2704 23.9743C21.1139 23.9532 20.9547 23.9774 20.8116 24.044C20.6685 24.1106 20.5475 24.2169 20.4631 24.3503C20.3786 24.4836 20.3341 24.6384 20.335 24.7962V31.3014C20.335 31.5504 20.4387 31.7786 20.6359 31.9342L32.0276 41.5L20.6359 51.0658C20.5431 51.1434 20.4682 51.2401 20.4163 51.3493C20.3644 51.4586 20.3367 51.5777 20.335 51.6986V58.2038C20.335 58.9093 21.1546 59.2931 21.6941 58.8366ZM79.68 0H3.32C1.48362 0 0 1.48362 0 3.32V79.68C0 81.5164 1.48362 83 3.32 83H79.68C81.5164 83 83 81.5164 83 79.68V3.32C83 1.48362 81.5164 0 79.68 0ZM75.53 75.53H7.47V7.47H75.53V75.53Z" fill="black"/>
</svg>
