<svg width="82" height="82" viewBox="0 0 82 82" fill="none" xmlns="http://www.w3.org/2000/svg">
<path d="M81.2686 77.7516L69.2279 65.7271V19.4674L63.5413 8.95832C63.1219 8.1571 62.4925 7.48626 61.7212 7.01828C60.95 6.55029 60.0661 6.30294 59.1651 6.30294C58.2642 6.30294 57.3803 6.55029 56.6091 7.01828C55.8378 7.48626 55.2084 8.1571 54.789 8.95832L49.4485 19.4922V45.9512L4.22789 0.734928C3.88207 0.384553 3.44024 0.145601 2.95874 0.0485361C2.47725 -0.0485289 1.97789 0.000690952 1.52434 0.18992C1.07079 0.37915 0.68359 0.699815 0.412115 1.11103C0.14064 1.52225 -0.00281406 2.00539 4.18259e-05 2.49886V22.5729H5.3652V26.5479H4.18259e-05V42.4482H5.3652V46.4232H4.18259e-05V62.9445H5.3652V66.9196H4.18259e-05V79.5155C4.18259e-05 80.1744 0.260529 80.8064 0.724198 81.2723C1.18787 81.7382 1.81674 82 2.47247 82H79.5132C80.0043 82.0028 80.4851 81.8587 80.8943 81.5859C81.3036 81.3131 81.6227 80.924 81.811 80.4683C81.9993 80.0125 82.0483 79.5107 81.9517 79.0269C81.8551 78.5431 81.6173 78.0991 81.2686 77.7516ZM19.7794 62.3234V39.8147L42.2043 62.3234H19.7794ZM64.2831 67.5655H54.3934V61.5284H64.2831V67.5655ZM64.2831 57.6279H54.3934V20.7096L59.1899 11.3434L64.2831 20.7344V57.6279Z" fill="black"/>
</svg>
