<svg width="82" height="79" viewBox="0 0 82 79" fill="none" xmlns="http://www.w3.org/2000/svg">
<path d="M79.4766 13.0313L41.9766 0.531259C41.3403 0.335446 40.6598 0.335446 40.0235 0.531259L2.56252 13.0313H2.48439L2.09377 13.2266H2.05471L1.66408 13.4609C1.66408 13.5 1.62502 13.5 1.58596 13.5391L1.27346 13.8125L1.00002 14.125C1.00002 14.1641 0.960957 14.1641 0.960957 14.2031L0.726582 14.5547C0.726582 14.5938 0.726582 14.5938 0.687519 14.6328L0.53127 14.9844L0.414082 15.4141V15.5313C0.375553 15.6843 0.362357 15.8427 0.37502 16V47.25C0.37502 48.0788 0.70426 48.8737 1.29031 49.4597C1.87636 50.0458 2.67122 50.375 3.50002 50.375C4.32882 50.375 5.12368 50.0458 5.70973 49.4597C6.29578 48.8737 6.62502 48.0788 6.62502 47.25V20.3359L19.75 24.711C17.2842 28.6578 15.9843 33.2212 16 37.875C16.0015 42.1075 17.0774 46.2703 19.1271 49.9733C21.1767 53.6763 24.133 56.7984 27.7188 59.0469C20.2672 61.8658 13.9057 66.9824 9.55471 73.6563C9.11122 74.3576 8.96097 75.205 9.13632 76.016C9.31168 76.8271 9.79861 77.5368 10.4922 77.9922C10.8326 78.2177 11.2143 78.3735 11.6153 78.4504C12.0163 78.5273 12.4286 78.5239 12.8283 78.4403C13.2279 78.3568 13.607 78.1947 13.9436 77.9636C14.2802 77.7324 14.5676 77.4368 14.7891 77.0938C17.6255 72.7246 21.5091 69.1339 26.0868 66.648C30.6645 64.1621 35.7909 62.8599 41 62.8599C46.2091 62.8599 51.3356 64.1621 55.9132 66.648C60.4909 69.1339 64.3745 72.7246 67.211 77.0938C67.4962 77.5269 67.8848 77.8823 68.3417 78.1278C68.7986 78.3733 69.3095 78.5012 69.8281 78.5C70.4268 78.5063 71.013 78.3291 71.5078 77.9922C72.2014 77.5368 72.6883 76.8271 72.8637 76.016C73.0391 75.205 72.8888 74.3576 72.4453 73.6563C68.0943 66.9824 61.7328 61.8658 54.2813 59.0469C57.8671 56.7984 60.8233 53.6763 62.873 49.9733C64.9226 46.2703 65.9986 42.1075 66 37.875C66.0158 33.2212 64.7158 28.6578 62.25 24.711L79.4766 18.9688C80.1018 18.7633 80.6462 18.3656 81.0321 17.8325C81.418 17.2995 81.6258 16.6581 81.6258 16C81.6258 15.3419 81.418 14.7006 81.0321 14.1675C80.6462 13.6344 80.1018 13.2368 79.4766 13.0313ZM41 56.625C36.0272 56.625 31.2581 54.6496 27.7418 51.1333C24.2255 47.617 22.25 42.8478 22.25 37.875C22.2576 33.874 23.529 29.9776 25.8828 26.7422L40.0235 31.4688C40.6578 31.6774 41.3423 31.6774 41.9766 31.4688L56.1172 26.7422C58.471 29.9776 59.7425 33.874 59.75 37.875C59.75 42.8478 57.7746 47.617 54.2583 51.1333C50.742 54.6496 45.9728 56.625 41 56.625Z" fill="black"/>
</svg>
